<svg width="25" height="24" viewBox="0 0 25 24" fill="none" xmlns="http://www.w3.org/2000/svg">
<path fill-rule="evenodd" clip-rule="evenodd" d="M13.2401 6.50002C12.1224 6.50531 11.4097 6.50668 10.405 6.50668C9.56465 6.50668 9.0927 6.85172 9.0777 7.05754C9.06736 7.1993 9.30822 7.32062 9.53917 7.43695C9.61474 7.47502 9.68937 7.51261 9.75366 7.55015C10.0054 7.70845 10.2327 8.21094 10.2327 8.55035V11.511C10.2327 11.7924 10.1697 11.9883 9.94561 12.1717C9.83886 12.2591 9.71198 12.2823 9.57482 12.2816C9.46383 12.281 9.31287 12.2599 9.20895 12.1235C8.32891 10.9679 8.14624 10.6177 7.32905 9.05073C7.1184 8.64681 6.86558 8.16204 6.54779 7.5618L6.53601 7.5395C6.46461 7.40412 6.39025 7.26312 6.24427 7.15573C6.09025 7.04242 5.86201 6.96767 5.49612 6.96767C4.808 6.96767 4.26532 6.97325 3.77933 6.97825C3.38518 6.9823 3.02802 6.98598 2.66105 6.98598C1.88533 6.98598 1.95995 7.46852 2.06385 7.68828C2.99386 9.65531 3.93813 11.5335 5.02361 13.4399C6.2948 15.6724 7.45693 17.0134 9.4124 17.9766C9.86628 18.2001 10.6847 18.4309 11.6306 18.4309H13.6404C13.8986 18.4309 14.3278 18.2242 14.3278 17.9466V16.4172C14.3278 16.0108 14.6989 15.8447 14.9396 15.737L14.9923 15.7132C15.2686 15.5865 15.5584 15.7862 15.7044 15.9445C15.9587 16.2204 16.149 16.427 16.303 16.5942C16.829 17.1655 16.9321 17.2775 17.724 18.1213C17.9553 18.3679 18.13 18.4975 18.5673 18.4975C19.9096 18.4975 20.6422 18.4986 21.1083 18.4994C21.6671 18.5003 21.8432 18.5006 22.2276 18.4975C22.4213 18.4959 22.7088 18.2012 22.7723 18.0864C22.8562 17.9348 23.0469 17.3936 22.7412 17.0429C21.9527 16.1384 21.1526 15.292 20.369 14.463C20.1217 14.2013 19.8753 13.9407 19.6321 13.6812C19.5548 13.5987 19.4964 13.4871 19.4943 13.3733C19.492 13.2489 19.5604 13.1281 19.6321 13.0271C20.769 11.4264 21.7082 10.071 22.7297 8.38726C23.0617 7.83995 23.0188 7.45233 22.9577 7.31882C22.887 7.16421 22.6694 6.95072 22.4196 6.94936C21.8811 6.9463 21.4632 6.94142 21.0651 6.93678C20.4548 6.92966 19.891 6.92308 19.0103 6.9244L18.9353 6.92428C18.5316 6.92304 18.1769 6.92194 17.9521 7.42201C17.3125 8.84438 16.2691 11.0148 15.3631 11.9171C15.1958 12.0836 14.9724 12.2074 14.7774 12.2083C14.5824 12.2093 14.375 12.0746 14.3459 11.7523C14.3323 10.8115 14.3339 9.95461 14.3354 9.08672C14.3364 8.52661 14.3374 7.96191 14.3344 7.36709C14.3321 6.91869 14.1517 6.79243 14.0076 6.69156L13.9931 6.68142C13.7948 6.5419 13.4814 6.49886 13.2401 6.50002Z" fill="#252C32"/>
</svg>
