<svg width="24" height="24" viewBox="0 0 24 24" fill="none" xmlns="http://www.w3.org/2000/svg">
<path fill-rule="evenodd" clip-rule="evenodd" d="M12 24C18.6274 24 24 18.6274 24 12C24 5.37258 18.6274 0 12 0C5.37258 0 0 5.37258 0 12C0 18.6274 5.37258 24 12 24ZM12 20.3438C12.9661 20.3438 13.8938 20.1796 14.7568 19.8776C14.9712 19.8026 15.0571 19.5502 14.9436 19.3535L12.9745 15.9403C12.5415 15.1899 11.4585 15.1899 11.0255 15.9403L9.0564 19.3535C8.94289 19.5502 9.02882 19.8026 9.24321 19.8776C10.1062 20.1796 11.0339 20.3438 12 20.3438ZM19.8396 13.125C20.0666 13.125 20.2422 13.3253 20.2003 13.5485C19.8442 15.4462 18.8456 17.1174 17.439 18.3276C17.2667 18.4758 17.005 18.424 16.8914 18.2271L14.9212 14.8122C14.4885 14.0622 15.0298 13.125 15.8957 13.125H19.8396ZM16.8914 5.77288C17.005 5.57599 17.2667 5.5242 17.439 5.67245C18.8456 6.88264 19.8442 8.55382 20.2003 10.4515C20.2422 10.6747 20.0666 10.875 19.8396 10.875H15.8957C15.0298 10.875 14.4885 9.93781 14.9212 9.18781L16.8914 5.77288ZM12.9745 8.05969L14.9436 4.64651C15.0571 4.44977 14.9712 4.19744 14.7568 4.12242C13.8938 3.82043 12.9661 3.65625 12 3.65625C11.0339 3.65625 10.1062 3.82043 9.24322 4.12242C9.02882 4.19744 8.94289 4.44977 9.0564 4.64651L11.0255 8.05969C11.4585 8.8101 12.5415 8.8101 12.9745 8.05969ZM4.16038 10.875C3.93337 10.875 3.75779 10.6747 3.79966 10.4515C4.15579 8.55382 5.1544 6.88264 6.56101 5.67245C6.73332 5.5242 6.99504 5.57599 7.10863 5.77288L9.07879 9.18781C9.51148 9.93781 8.97019 10.875 8.10433 10.875H4.16038ZM7.10863 18.2271C6.99504 18.424 6.73332 18.4758 6.56101 18.3276C5.1544 17.1174 4.15579 15.4462 3.79966 13.5485C3.75779 13.3253 3.93337 13.125 4.16038 13.125H8.10433C8.97019 13.125 9.51148 14.0622 9.07879 14.8122L7.10863 18.2271ZM12 14.3438C13.2944 14.3438 14.3438 13.2944 14.3438 12C14.3438 10.7056 13.2944 9.65625 12 9.65625C10.7056 9.65625 9.65625 10.7056 9.65625 12C9.65625 13.2944 10.7056 14.3438 12 14.3438Z" fill="#252C32"/>
</svg>
